<?xml version="1.0" encoding="iso-8859-1"?>
<!-- Generator: Adobe Illustrator 19.0.0, SVG Export Plug-In . SVG Version: 6.00 Build 0)  -->
<svg version="1.1" id="Layer_1" xmlns="http://www.w3.org/2000/svg" xmlns:xlink="http://www.w3.org/1999/xlink" x="0px" y="0px"
	 viewBox="0 0 512 512" style="enable-background:new 0 0 512 512;" xml:space="preserve">
<g>
	<path style="fill:#FBC640;" d="M326.812,182.52H185.188c-10.671,0-19.321-8.65-19.321-19.321V41.658h59.318L256,71.842h90.134
		v91.357C346.133,173.87,337.482,182.52,326.812,182.52z"/>
	<path style="fill:#FBC640;" d="M172.015,470.34H30.391c-10.671,0-19.321-8.65-19.321-19.321V329.477h59.318l30.814,30.184h90.134
		v91.357C191.336,461.69,182.685,470.34,172.015,470.34z"/>
	<path style="fill:#FBC640;" d="M481.609,470.34H339.985c-10.671,0-19.321-8.65-19.321-19.321V329.477h59.318l30.814,30.184h90.134
		v91.357C500.93,461.69,492.279,470.34,481.609,470.34z"/>
</g>
<g>
	<path style="fill:#231F20;" d="M185.187,193.591h141.624c16.758,0,30.391-13.633,30.391-30.391V71.842
		c0-6.113-4.957-11.07-11.07-11.07h-85.615l-27.585-27.023c-2.069-2.027-4.851-3.162-7.747-3.162h-59.318
		c-6.113,0-11.07,4.957-11.07,11.07v121.542C154.797,179.958,168.431,193.591,185.187,193.591z M176.938,52.728h43.729
		l27.585,27.023c2.069,2.027,4.851,3.162,7.747,3.162h79.063v80.286c0,4.549-3.702,8.251-8.251,8.251H185.187
		c-4.549,0-8.25-3.702-8.25-8.251V52.728z"/>
	<path style="fill:#231F20;" d="M500.93,348.593h-85.615L387.73,321.57c-2.069-2.027-4.851-3.162-7.747-3.162h-59.319
		c-6.113,0-11.07,4.957-11.07,11.07v64.554H267.07V292.185c0-6.113-4.957-11.07-11.07-11.07s-11.07,4.957-11.07,11.07v101.847
		h-42.523v-34.368c0-6.113-4.957-11.07-11.07-11.07h-85.615l-27.585-27.023c-2.069-2.027-4.851-3.162-7.747-3.162H11.07
		c-6.113,0-11.07,4.957-11.07,11.07v121.542c0,16.758,13.633,30.391,30.39,30.391h141.624c16.758,0,30.391-13.633,30.391-30.391
		v-34.848h107.187v34.848c0,16.758,13.633,30.391,30.391,30.391h141.624c16.758,0,30.391-13.633,30.391-30.391v-91.356
		C512,353.549,507.044,348.593,500.93,348.593z M180.265,451.019c0,4.549-3.702,8.251-8.251,8.251H30.39
		c-4.549,0-8.25-3.702-8.25-8.251V340.548H65.87l27.585,27.023c2.069,2.027,4.851,3.162,7.747,3.162h79.063V451.019z
		 M489.859,451.019c0,4.549-3.702,8.251-8.251,8.251H339.984c-4.549,0-8.251-3.702-8.251-8.251V340.548h43.73l27.585,27.023
		c2.069,2.027,4.851,3.162,7.747,3.162h79.063V451.019z"/>
	<path style="fill:#231F20;" d="M243.544,239.135v3.231c0,6.113,4.957,11.07,11.07,11.07c6.113,0,11.07-4.957,11.07-11.07v-3.231
		c0-6.113-4.957-11.07-11.07-11.07C248.501,228.065,243.544,233.021,243.544,239.135z"/>
</g>
<g>
</g>
<g>
</g>
<g>
</g>
<g>
</g>
<g>
</g>
<g>
</g>
<g>
</g>
<g>
</g>
<g>
</g>
<g>
</g>
<g>
</g>
<g>
</g>
<g>
</g>
<g>
</g>
<g>
</g>
</svg>
