<?xml version="1.0" encoding="iso-8859-1"?>
<!-- Generator: Adobe Illustrator 19.0.0, SVG Export Plug-In . SVG Version: 6.00 Build 0)  -->
<svg version="1.1" id="Layer_1" xmlns="http://www.w3.org/2000/svg" xmlns:xlink="http://www.w3.org/1999/xlink" x="0px" y="0px"
	 viewBox="0 0 512 512" style="enable-background:new 0 0 512 512;" xml:space="preserve">
<g>
	<g>
		<path d="M483.756,68.507H28.244C12.645,68.507,0,81.152,0,96.751v308.86c0,20.921,16.961,37.882,37.882,37.882h11.986
			c0,0-0.591-0.061-0.591-0.114V204.063c0-5.833,4.728-10.561,10.561-10.561h391.139c5.823,0,10.544,4.721,10.544,10.544v239.332
			c0,0.053,0.611,0.114,0.611,0.114h12.629c20.567,0,37.239-16.672,37.239-37.238V96.751C512,81.152,499.355,68.507,483.756,68.507z
			 M96.744,155.042H64c-6.166,0-11.163-5.253-11.163-11.418S57.834,132.207,64,132.207h32.744c6.166,0,11.163,5.253,11.163,11.418
			S102.91,155.042,96.744,155.042z M376.145,148.598c-9.597,0-17.377-7.78-17.377-17.377c0-9.597,7.78-17.377,17.377-17.377
			s17.377,7.78,17.377,17.377C393.521,140.818,385.742,148.598,376.145,148.598z M440.193,148.598
			c-9.597,0-17.377-7.78-17.377-17.377c0-9.597,7.78-17.377,17.377-17.377s17.377,7.78,17.377,17.377
			C457.569,140.818,449.79,148.598,440.193,148.598z"/>
	</g>
</g>
<g>
	<g>
		<path d="M112.348,314.791c-6.166,0-11.39-4.999-11.39-11.163v-84.837c0-1.248,0.465-2.453,0.844-2.453H70.911v215.136h46.873
			V313.498C116.582,314.321,114.23,314.791,112.348,314.791z"/>
	</g>
</g>
<g>
	<g>
		<path d="M275.803,314.791c-6.166,0-11.39-4.999-11.39-11.163v-84.837c0-1.248,0.731-2.453,1.108-2.453h-44.346
			c0.377,0,1.172,1.204,1.172,2.453v212.683h58.892V313.498C280.038,314.321,277.685,314.791,275.803,314.791z"/>
	</g>
</g>
<g>
	<g>
		<path d="M194.076,314.791c-6.166,0-11.39-4.999-11.39-11.163v-84.837c0-1.248,0.599-2.453,0.976-2.453h-44.346
			c0.377,0,0.102,1.204,0.102,2.453v212.683h60.094V313.498C198.31,314.321,195.958,314.791,194.076,314.791z"/>
	</g>
</g>
<g>
	<g>
		<path d="M358.132,314.791c-6.166,0-10.789-4.999-10.789-11.163v-84.837c0-1.248-0.339-2.453,0.04-2.453h-44.346
			c0.377,0,1.038,1.204,1.038,2.453v212.683h58.892V313.498C361.765,314.321,360.014,314.791,358.132,314.791z"/>
	</g>
</g>
<g>
	<g>
		<path d="M384.897,216.338c0.379,0,0.906,1.204,0.906,2.453v212.683h52.883V216.338H384.897z"/>
	</g>
</g>
<g>
</g>
<g>
</g>
<g>
</g>
<g>
</g>
<g>
</g>
<g>
</g>
<g>
</g>
<g>
</g>
<g>
</g>
<g>
</g>
<g>
</g>
<g>
</g>
<g>
</g>
<g>
</g>
<g>
</g>
</svg>
